<?xml version="1.0" encoding="UTF-8"?>
<svg id="Layer_1" data-name="Layer 1" xmlns="http://www.w3.org/2000/svg" version="1.1" viewBox="0 0 100 100">
  <defs>
    <style>
      .cls-1 {
        fill: #fff;
        fill-rule: evenodd;
        stroke-width: 0px;
      }
    </style>
  </defs>
  <path class="cls-1" d="M49.9,22.3c4,0,7.3,3.3,7.3,7.3s-3.3,7.3-7.3,7.3-7.3-3.3-7.3-7.3,3.3-7.3,7.3-7.3h0ZM63.3,59.8v15.3h4.2v-13.1h.9v13.1h4.3v-26.6h.7v8.6h3.8v-11.7c0-2.1-1.7-3.8-3.8-3.8h-8.5c.1.5.2,1.1.2,1.7v16.5h-1.8ZM56.3,56.5v-10.4h-.8v32.2h-5.1v-15.8h-1.1v15.8h-5.2v-32.2h-.8v10.4h-4.6v-14.2c0-2.5,2.1-4.6,4.6-4.6,13.9,0-.8,0,13.2,0s4.6,2.1,4.6,4.6v14.2h-4.7ZM36,59.8v15.3h-4.2v-13.1h-.9v13.1h-4.3v-26.6h-.7v8.6h-3.8v-11.7c0-2.1,1.7-3.8,3.8-3.8h8.5c-.1.5-.2,1.1-.2,1.7v16.5h1.8ZM31.4,28.9c3.3,0,6,2.7,6,6s-.4,2.6-1.2,3.6c-.2.2-.4.4-.6.7-1.1,1.1-2.6,1.8-4.2,1.8-3.3,0-6-2.7-6-6s2.7-6,6-6h0ZM67.9,28.9c-3.3,0-6,2.7-6,6s.4,2.6,1.2,3.6c.2.2.4.4.6.7,1.1,1.1,2.6,1.8,4.2,1.8,3.3,0,6-2.7,6-6s-2.7-6-6-6Z"/>
</svg>