<?xml version="1.0" encoding="UTF-8"?>
<svg id="Layer_1" data-name="Layer 1" xmlns="http://www.w3.org/2000/svg" version="1.1" viewBox="0 0 100 100">
  <defs>
    <style>
      .cls-1 {
        fill: #fff;
        fill-rule: evenodd;
        stroke-width: 0px;
      }
    </style>
  </defs>
  <path class="cls-1" d="M51.9,21.5c.3,0,.7,0,1,0,.9,5.2,1.4,10.5,1.5,15.9-1.2.8-2,2.2-2,3.8s0,.3,0,.5c-2.3,1.3-4.7,2.4-7.2,3.5-2.7,1.2-5.5,2.4-8.3,3.4-.8-.8-1.9-1.3-3.2-1.3s-2.2.4-3,1.1c-2.3-1.4-4.6-2.9-6.9-4.4,2.9-12.8,14.4-22.4,28.1-22.4h0ZM57.2,22c5.2,1,9.9,3.3,13.7,6.7-3.6,3.2-7.4,6.1-11.5,8.7-.3-.2-.6-.4-.9-.5,0-5-.5-10-1.4-15h0ZM73.9,31.7c-3.9,3.5-8,6.6-12.4,9.4h0c0,2.1-1.3,3.7-3,4.4,0,.9-.1,1.8-.2,2.8-.3,3.5-.7,6.9-1.3,10.4,1,.7,1.7,1.7,1.9,3,5.7,1.9,11.4,3.3,17.3,4.1,2.9-4.5,4.5-9.8,4.5-15.5s-2.6-13.6-6.8-18.6h0ZM73.3,69.5c-5.2,5.8-12.7,9.4-21.1,9.5,1.2-4.1,2.3-8.2,3.2-12.2.9-.2,1.7-.6,2.3-1.3,5.2,1.7,10.4,3,15.6,3.9h0ZM48,78.8c-11.8-1.6-21.3-10.4-24.1-21.8,2.3-.6,4.5-1.2,6.7-1.9.8.8,1.9,1.2,3.1,1.2s1.3-.1,1.9-.4c4.7,2.6,9.5,4.8,14.3,6.8,0,1.2.6,2.3,1.5,3-.9,4.3-2.1,8.6-3.4,13h0ZM23.3,52.9c1.6-.4,3.2-.9,4.8-1.3-1.6-1-3.2-2-4.8-3.1,0,.6,0,1.2,0,1.8,0,.9,0,1.7.1,2.6h0ZM54.3,45.4c-2.4,1.3-4.8,2.5-7.3,3.6-2.8,1.3-5.8,2.5-8.7,3.6h0c4.4,2.5,8.9,4.6,13.3,6.4.4-.3.8-.6,1.3-.8.6-3.5,1-6.9,1.2-10.3,0-.9.1-1.7.2-2.6Z"/>
</svg>