<?xml version="1.0" encoding="UTF-8"?>
<svg id="Layer_1" data-name="Layer 1" xmlns="http://www.w3.org/2000/svg" version="1.1" viewBox="0 0 100 100">
  <defs>
    <style>
      .cls-1 {
        fill: #fff;
        fill-rule: evenodd;
        stroke-width: 0px;
      }
    </style>
  </defs>
  <path class="cls-1" d="M32.2,74.3c-4.6-14.1.4-19.4,8.3-22,2.9-.9,6-1.4,9.1-1.9,2.6-.4,5.3-.8,7.4-1.4,4.3-1.2,7.4-3.9,5.7-11.5l-5.2,1.3,2.4-8.1,2.4-8.1,5.8,6.1,5.8,6.1-4.4,1.1c3.1,13-2.6,17.7-10.6,20-2.7.8-5.5,1.2-8.3,1.6-2.9.4-5.7.9-8,1.6-4.1,1.4-6.6,4.4-3.8,13.1l-6.7,2.2h0ZM22.5,39.6l-1.1,3.4c1.7.6,3.1,1.3,4.4,2.3-1.4,1.8-2.6,3.7-3.7,5.7l3.1,1.7c.9-1.8,2-3.4,3.2-4.9,1.5,1.6,2.7,3.5,3.7,5.6l3.1-1.6c-1.3-2.4-2.7-4.7-4.5-6.6,1.6-1.6,3.5-2.9,5.8-4l-1.5-3.2c-2.7,1.3-5,2.9-6.9,4.8-1.6-1.2-3.5-2.3-5.7-3h0ZM70.7,53.9c-2.2,0-4.2.9-5.6,2.3-1.4,1.4-2.3,3.4-2.3,5.6s.9,4.2,2.3,5.6c1.4,1.4,3.4,2.3,5.6,2.3s4.2-.9,5.6-2.3c1.4-1.4,2.3-3.4,2.3-5.6s-.9-4.2-2.3-5.6c-1.4-1.4-3.4-2.3-5.6-2.3h0ZM73.2,59.3c-.6-.6-1.5-1-2.5-1s-1.8.4-2.5,1c-.6.6-1,1.5-1,2.5s.4,1.8,1,2.5,1.5,1,2.5,1,1.8-.4,2.5-1c.6-.6,1-1.5,1-2.5s-.4-1.8-1-2.5h0ZM57.1,60.3l-3.5-.6c-.3,1.7-.9,3.3-1.6,4.7-1.9-1.1-4-2-6.1-2.8l-1.2,3.3c1.9.7,3.7,1.5,5.3,2.4-1.4,1.7-3.1,3.2-5,4.5l2.1,2.9c2.2-1.6,4.2-3.4,5.9-5.4,1.8,1.4,3.4,3,4.8,5.1l3-2c-1.7-2.5-3.6-4.5-5.7-6.1,1-1.8,1.7-3.8,2.1-6h0ZM47.7,30.6c-2.2,0-4.2.9-5.6,2.3-1.4,1.4-2.3,3.4-2.3,5.6s.9,4.2,2.3,5.6c1.4,1.4,3.4,2.3,5.6,2.3s4.2-.9,5.6-2.3c1.4-1.4,2.3-3.4,2.3-5.6s-.9-4.2-2.3-5.6c-1.4-1.4-3.4-2.3-5.6-2.3h0ZM50.1,36c-.6-.6-1.5-1-2.5-1s-1.8.4-2.5,1-1,1.5-1,2.5.4,1.8,1,2.5c.6.6,1.5,1,2.5,1s1.8-.4,2.5-1c.6-.6,1-1.5,1-2.5s-.4-1.8-1-2.5Z"/>
</svg>