<?xml version="1.0" encoding="UTF-8"?>
<svg id="Layer_1" data-name="Layer 1" xmlns="http://www.w3.org/2000/svg" version="1.1" viewBox="0 0 100 100">
  <defs>
    <style>
      .cls-1 {
        fill: #fff;
        fill-rule: evenodd;
        stroke-width: 0px;
      }
    </style>
  </defs>
  <path class="cls-1" d="M23.2,78.9c1.4-3.6,3.1-7.1,5.1-10.4-3.4-6.3-4.6-11.9-4.2-16.8.3-4.2,1.8-7.8,4-10.9,2.2-3,5.1-5.5,8.6-7.5,9.2-5.4,22.2-7.4,33.4-6.6l4.9.4-.9,4.9v.2c-1.7,9.4-6,20.2-12.6,28.2-6.8,8.2-16,13.5-27.4,12.1-1.4,3.4-2.6,7-3.5,10.6l-7.3-4.2h0ZM34.1,59.5c6.2-8,13.4-15.2,22.7-20.8l1.6,1.5c-4.6,3-18.1,17.3-20.3,23.3,6.5-.3,12-3.9,16.3-9.1,4.5-5.4,7.7-12.4,9.5-19.1-8.2.1-16.7,1.9-22.8,5.5-2.4,1.4-4.4,3.1-5.8,5-1.3,1.8-2.2,3.9-2.3,6.3-.2,2.1.2,4.5,1.1,7.2Z"/>
</svg>