<?xml version="1.0" encoding="UTF-8"?>
<svg id="Layer_1" data-name="Layer 1" xmlns="http://www.w3.org/2000/svg" version="1.1" viewBox="0 0 100 100">
  <defs>
    <style>
      .cls-1 {
        fill: #fff;
        fill-rule: evenodd;
        stroke-width: 0px;
      }
    </style>
  </defs>
  <path class="cls-1" d="M78.7,33.9h-45.6v28.7h47.5v-28.7h-2ZM40.7,47.1h3.8l.3.6.3.7,1-5.1,2-.2,1.1,2.8.9-.9,1-1,.6,1.2,2.9,5.6,1.1-4.7.5-2.3,1.3,1.9,1,1.5,2.5-3.7,1.8.2,2.1,4.9.3-1.7.2-.8h7.4v2h-5.7l-.8,4-1.9.2-2.7-6.1-2.3,3.4-.8,1.3-.8-1.2-.6-.8-1.2,5.1-1.9.2-3.6-6.8-1,1-1.1,1.1-.6-1.5-.3-.9-.9,4.6-1.9.3-1.4-2.9h-2.5v-2h0ZM39.9,69.9h-20.6V24.9h20.6v6.1h-18.9v7.4h9.2v1.7h-9.2v7.4h9.2v18h9.6v4.3h0ZM25.1,50.3h-3.8v2.2h3.8v-2.2h0ZM25.1,53.9h-3.8v2.2h3.8v-2.2h0ZM30.2,32.9h-7.3v3.7h7.3v-3.7h0ZM30.2,42h-7.3v3.7h7.3v-3.7h0ZM68.2,67.7h-3.5v-3.7h-15.3v3.7h-3.1v2.3h21.8v-2.3h0ZM38.4,38.8h36.8v18.9h-36.8v-18.9Z"/>
</svg>