<?xml version="1.0" encoding="UTF-8"?>
<svg id="Layer_1" data-name="Layer 1" xmlns="http://www.w3.org/2000/svg" version="1.1" viewBox="0 0 100 100">
  <defs>
    <style>
      .cls-1 {
        fill: #fff;
        fill-rule: evenodd;
        stroke-width: 0px;
      }
    </style>
  </defs>
  <path class="cls-1" d="M29.7,25.5c4.3-3.7,9.7-5.3,14.9-4.9,5.2.4,10.3,2.8,14,7,3.7,4.3,5.3,9.7,4.9,14.9-.3,4.4-2.1,8.8-5.2,12.3l2.5,2.9,1-.9c1-.9,2.6-.8,3.5.3l11.5,13.3c.9,1,.8,2.6-.3,3.5l-5.8,5c-1,.9-2.6.8-3.5-.3l-11.5-13.3c-.9-1-.8-2.6.3-3.5l1.1-1-2.5-2.9c-3.9,2.7-8.5,3.8-13,3.5-5.2-.4-10.3-2.8-14-7-3.7-4.3-5.3-9.7-4.9-14.9.4-5.2,2.8-10.3,7-14h0ZM36.8,34.1c-3.8,3.3-4.2,9-.9,12.8,1.1,1.3,2.4,2.1,3.9,2.7l3.3-17.7c-2.2,0-4.5.6-6.3,2.2h0ZM44,29.3c-3-.2-6.1.7-8.5,2.8-2.5,2.1-3.8,5-4,8-.2,3,.7,6.1,2.8,8.5,2.1,2.5,5,3.8,8,4,3,.2,6.1-.7,8.5-2.8,2.5-2.1,3.8-5,4-8,.2-3-.7-6.1-2.8-8.5-2.1-2.5-5-3.8-8-4Z"/>
</svg>