<?xml version="1.0" encoding="UTF-8"?>
<svg id="Layer_1" data-name="Layer 1" xmlns="http://www.w3.org/2000/svg" version="1.1" viewBox="0 0 100 100">
  <defs>
    <style>
      .cls-1 {
        fill: #fff;
        fill-rule: evenodd;
        stroke-width: 0px;
      }
    </style>
  </defs>
  <path class="cls-1" d="M22.5,69.3h59.2v3.2H19.3V24.3h3.2v10.3l4.4-1.4,1.5-.5.8,1.4,3.5,6.5,14.4-6.7,2.6-1.2.2,2.9.2,2.9,7.3-2.3,1.1-.4.8.8,12.8,12.1,5.6-4.5c0-.2,0-.5,0-.7,0-1.6,1.3-2.9,2.9-2.9s2.9,1.3,2.9,2.9-1.3,2.9-2.9,2.9-.6,0-.9-.1l-5.5,4.4,5.8,5.5-2.7,2.8-6.3-5.9-7,5.6c0,0,0,.2,0,.3,0,1.6-1.3,2.9-2.9,2.9s-2.9-1.3-2.9-2.9,0-.1,0-.2l-7.3-7.2c-.3,0-.6.1-.9.1s-.7,0-1-.2l-8.3,6.1h0c0,1.6-1.3,2.9-2.9,2.9s-2.9-1.3-2.9-2.9,0-.3,0-.4l-2.9-2.9c-.3.1-.7.2-1,.2s-.6,0-.9-.2l-7.8,8.2v6.7h0ZM61.2,56.1c.5,0,.9.1,1.3.3l6.6-5.3-11.6-10.9-8.6,2.7-2.4.8v-2.5c-.1,0-.3-2.6-.3-2.6l-13.4,6.2-1.7.8-.9-1.6-3.7-6.7-4.1,1.3v20l6-6.2c0-.2,0-.4,0-.6,0-1.6,1.3-2.9,2.9-2.9s2.9,1.3,2.9,2.9,0,.4,0,.5l2.8,2.8c.3-.2.7-.2,1.1-.2s1,.1,1.5.4l7.9-5.8c0-.2,0-.4,0-.5,0-1.6,1.3-2.9,2.9-2.9s2.9,1.3,2.9,2.9,0,.5,0,.7l7,6.9c.4-.2.8-.3,1.3-.3Z"/>
</svg>