<?xml version="1.0" encoding="UTF-8"?>
<svg id="Layer_1" data-name="Layer 1" xmlns="http://www.w3.org/2000/svg" version="1.1" viewBox="0 0 100 100">
  <defs>
    <style>
      .cls-1 {
        fill: #fff;
        fill-rule: evenodd;
        stroke-width: 0px;
      }
    </style>
  </defs>
  <path class="cls-1" d="M22.1,51.9l3.8,2.9-1.2,21h5.5l.9-17.9h2.3l1.1,17.9h5.1l-.8-21-.4-12.8,12.5-.2,2.7-4.7-14.1-.7h-6.3l.5.8-.6,1.3,1.4,9.6-2.1,2.1v.2h0c0,0,0,0,0,0v-.2l-2.1-2.1,1.3-9.6-.6-1.3.5-.8h-6.3l-2.9,15.6h0ZM32.4,22.8c-3.3,0-6,2.7-6,6s2.7,6,6,6,6-2.7,6-6-2.7-6-6-6h0ZM45.6,48.9l5.4-1.9h.4c0-.1.4,0,.4,0l4.1,2.6,3.4-9.7.5-1.5,1.1,1.1,3.1,3.3,4.5-7.8,1.6.9-5.2,8.9-.6,1.1-.9-.9-2.9-3.1-3.3,9.4-.4,1.1-1-.6-4.7-3-5,1.7-.6-1.8h0ZM46.6,72.5h18.3v3.2h-18.3v-3.2h0ZM58.2,62v9.4h-5.2v-9.4h-9.9v-3.8h31v-30h-32.6v-3.8h36.4v37.6h-19.7Z"/>
</svg>