<?xml version="1.0" encoding="UTF-8"?>
<svg id="Layer_1" data-name="Layer 1" xmlns="http://www.w3.org/2000/svg" version="1.1" viewBox="0 0 100 100">
  <defs>
    <style>
      .cls-1 {
        fill: #fff;
        fill-rule: evenodd;
        stroke-width: 0px;
      }
    </style>
  </defs>
  <path class="cls-1" d="M47.8,79.6h-.1s-.1,0-.1,0c-3.2-.4-6.2-1.4-9-2.8h-.1c0,0-.2-.1-.2-.1-3.9-2-7.2-4.8-9.7-8.1-2.6-3.3-4.4-7.2-5.3-11.5v-.2s0,0,0,0c-.2-1-.4-2-.5-3l.2-2.6c.2-2.6.9-4.8,1.9-6.7,1.9-3.4,4.9-5.6,8.9-6.4l-.7,3c-1,.3-1.9.6-2.9,1-.4.9-.7,1.9-1,2.9-.3,1.1-.5,2.2-.6,3.2h0v.2s5.7,0,5.7,0c.1-1.8.3-3.6.6-5.5l4.2-1.2c-.4,2.2-.7,4.4-.8,6.7h11.1v-9.6l12-3.4-1.1-1.4-11-11.9c2-.2,4-.1,6,.1h.1s.1,0,.1,0c6.4.9,12.1,3.8,16.5,8.2,3.9,3.9,6.7,8.9,7.8,14.5v.4c.6,2.9.7,6,.3,9.1h0c0,.1,0,.3,0,.3-.4,3.2-1.4,6.2-2.8,9h0c0,.1,0,.3,0,.3-2,3.9-4.8,7.2-8.1,9.7-3.3,2.6-7.2,4.4-11.5,5.3h-.2s0,0,0,0h0c0,0,0,0,0,0-3,.6-6.2.8-9.4.4h0ZM53.6,33.5l-12.1-12.8-1,3.9c-13.5,0-21.1,11.5-21.4,26.2,1.1-11.9,9.4-17.2,19-16.9l-1.1,4.2,16.5-4.7h0ZM28.3,52.4c0,1.2.2,2.4.5,3.5h0c0,.1,0,.2,0,.2.2,1,.5,2,.9,3,1.6.6,3.3,1.1,4.9,1.6-.4-2.8-.7-5.6-.7-8.4h-5.7ZM32.4,64.2c.2.3.4.6.6.8.6.8,1.3,1.6,2,2.3.5.5,1,1,1.6,1.4-.4-1.2-.7-2.4-1-3.6-1-.3-2.1-.6-3.1-.9h0ZM42.2,72.1c1,.4,2.1.8,3.2,1.1,1.1.3,2.2.5,3.2.6h0c.2,0,.4,0,.6,0v-6.6c-3.1-.2-6.1-.6-9.2-1.2.6,2,1.3,4,2.2,6h0ZM53.2,74c1,0,2.1-.2,3.1-.4h.1s0,0,0,0c.9-.2,1.7-.4,2.5-.7.9-2,1.7-4.1,2.3-6.1-2.7.5-5.4.7-8.2.8v6.6h0ZM64.4,70c.4-.2.7-.5,1-.7.8-.6,1.6-1.3,2.3-2,.9-.9,1.8-1.9,2.5-3-1.5.5-3,1-4.5,1.4-.4,1.5-.8,2.9-1.3,4.3h0ZM73.1,58.8c.2-.6.4-1.3.6-1.9.3-1,.5-1.9.6-2.9v-.2c0-.3,0-.6.1-.9h0c0-.2,0-.4,0-.5h-7c0,3-.3,5.9-.8,8.9,2.1-.7,4.3-1.5,6.4-2.4h0ZM74.4,48.4c-.2-2.1-.7-4.1-1.5-6-2.2-1-4.4-1.8-6.7-2.5.6,2.8.9,5.7,1.1,8.5h7ZM69.7,36.8c-.6-.8-1.3-1.5-2-2.2-1.1-1.1-2.4-2.1-3.7-3,.4,1.3.8,2.6,1.1,3.9,1.5.4,3,.8,4.5,1.3h0ZM53.2,37.9v10.5h10.2c-.2-3.2-.7-6.3-1.4-9.6-2.9-.6-5.8-.9-8.7-.9h0ZM49.2,63.3v-10.9h-11.2c0,3.2.3,6.3.9,9.5,3.4.8,6.9,1.3,10.3,1.5h0ZM62.4,62.4c.7-3.3,1-6.6,1.1-10h-10.3v11c3.1,0,6.2-.4,9.3-1Z"/>
</svg>