<?xml version="1.0" encoding="UTF-8"?>
<svg id="Layer_1" data-name="Layer 1" xmlns="http://www.w3.org/2000/svg" version="1.1" viewBox="0 0 100 100">
  <defs>
    <style>
      .cls-1 {
        fill: #fff;
        fill-rule: evenodd;
        stroke-width: 0px;
      }
    </style>
  </defs>
  <path class="cls-1" d="M76.9,66.5c4.5,1.8,7.2,4,7.2,6.5,0,5.8-15.3,10.5-34.1,10.5s-34.1-4.7-34.1-10.5,2.7-4.7,7.2-6.5c-1.1.8-1.7,1.6-1.7,2.4,0,3.9,12.8,7.1,28.5,7.1s28.5-3.2,28.5-7.1-.6-1.7-1.7-2.4h0ZM33.3,18.8c3.4,0,6.2,2.8,6.2,6.2s-2.8,6.2-6.2,6.2-6.2-2.8-6.2-6.2,2.8-6.2,6.2-6.2h0ZM66.6,18.8c-3.4,0-6.2,2.8-6.2,6.2s2.8,6.2,6.2,6.2,6.2-2.8,6.2-6.2-2.8-6.2-6.2-6.2h0ZM60.5,54.4v16.3h4.4l1.7-11.5,1.7,11.5h4.8v-18.1c1.9-1,3.2-3,3.2-5.2v-9.3c0-3.2-2.6-5.9-5.9-5.9h-7.2c-.5,0-.9,0-1.4.2,1,1.5,1.5,3.2,1.5,5.1v10.1c0,2.6-1.1,5-2.8,6.7h0ZM50.1,16.5c3.7,0,6.7,3,6.7,6.7s-3,6.7-6.7,6.7-6.7-3-6.7-6.7,3-6.7,6.7-6.7h0ZM56.8,53.4c2.1-1.1,3.5-3.2,3.5-5.7v-10.1c0-3.5-2.9-6.4-6.4-6.4h-7.9c-3.5,0-6.4,2.9-6.4,6.4v10.1c0,2.5,1.4,4.6,3.5,5.7v19.7h5.2l1.9-12.5,1.9,12.5h4.8v-19.7h0ZM39.4,54.4c-1.8-1.7-2.8-4.2-2.8-6.7v-10.1c0-1.9.6-3.7,1.5-5.1-.4-.1-.9-.2-1.4-.2h-7.2c-3.2,0-5.9,2.6-5.9,5.9v9.3c0,2.3,1.3,4.2,3.2,5.2v18.1h4.8l1.7-11.5,1.7,11.5h4.4v-16.3Z"/>
</svg>