<?xml version="1.0" encoding="UTF-8"?><svg id="Layer_1" xmlns="http://www.w3.org/2000/svg" viewBox="0 0 728.21 73.65"><defs><style>.cls-1{fill:#272525;stroke-width:0px;}</style></defs><path class="cls-1" d="M679.56,61.14h-77.27v-18.4h77.27v18.4ZM602.29,12.57h77.27v17.87h-77.27V12.57ZM673.77,73.65c13.67,0,19.97-5.68,19.97-15.45v-8.62c0-2.73-.95-3.99-2.94-5.68l-8.83-7.57,8.83-7.57c2-1.68,2.94-2.94,2.94-5.68v-7.57c0-9.78-6.31-15.45-19.97-15.45h-85.37v73.59h85.37ZM530.27,61.14h-77.27v-18.4h77.27v18.4ZM453,12.57h77.27v17.87h-77.27V12.57ZM524.49,73.65c13.67,0,19.97-5.68,19.97-15.45v-8.62c0-2.73-.95-3.99-2.94-5.68l-8.83-7.57,8.83-7.57c2-1.68,2.94-2.94,2.94-5.68v-7.57c0-9.78-6.31-15.45-19.97-15.45h-85.37v73.59h85.37ZM377.42.05v60.45h-73.07V.05h-13.88v56.77c0,10.41,6.31,16.82,18.82,16.82h63.18c12.51,0,18.82-6.41,18.82-16.82V.05h-13.88ZM154.65,30.12V.05h-13.88v73.59h13.88v-30.59h74.12v30.59h13.88V.05h-13.88v30.07h-74.12ZM100.29,13.2V.05H18.82C6.31.05,0,6.47,0,16.88v39.95c0,10.41,6.31,16.82,18.82,16.82h81.48v-13.14H14.19V13.2h86.1Z"/><path class="cls-1" d="M722.14.77c1.22.51,2.28,1.22,3.18,2.13s1.61,1.97,2.12,3.2c.51,1.22.77,2.53.77,3.94s-.26,2.74-.77,3.95c-.51,1.21-1.22,2.27-2.12,3.17s-1.96,1.6-3.18,2.12-2.54.77-3.96.77-2.74-.26-3.96-.77-2.28-1.22-3.18-2.12-1.6-1.96-2.12-3.17c-.51-1.21-.77-2.53-.77-3.95s.26-2.71.77-3.94c.51-1.22,1.22-2.29,2.12-3.2s1.96-1.62,3.18-2.13,2.54-.77,3.96-.77,2.74.26,3.96.77ZM714.79,2.1c-1.03.45-1.93,1.06-2.68,1.83-.75.77-1.34,1.68-1.77,2.72-.42,1.04-.63,2.17-.63,3.37s.21,2.33.63,3.37c.42,1.04,1.01,1.95,1.77,2.72.76.77,1.65,1.38,2.68,1.83s2.16.67,3.38.67,2.32-.22,3.36-.67c1.03-.45,1.93-1.06,2.68-1.83.76-.77,1.35-1.68,1.78-2.72.43-1.04.65-2.17.65-3.37s-.22-2.33-.65-3.37c-.43-1.04-1.02-1.95-1.78-2.72-.75-.77-1.65-1.38-2.68-1.83-1.03-.45-2.15-.67-3.36-.67s-2.35.22-3.38.67ZM714.53,15.83V4.23h4.45c1.31,0,2.27.27,2.87.82s.9,1.34.9,2.39c0,.5-.08.94-.23,1.32-.15.38-.36.7-.63.96-.27.26-.58.47-.93.62s-.72.27-1.12.34l3.45,5.15h-1.67l-3.26-5.15h-2.4v5.15h-1.43ZM719.13,9.42c.42-.03.8-.1,1.12-.23.32-.13.58-.33.78-.61.2-.28.3-.66.3-1.15,0-.41-.08-.75-.23-1-.15-.25-.36-.45-.62-.61-.26-.15-.55-.26-.88-.31s-.67-.08-1.02-.08h-2.62v4.02h1.89c.43,0,.86-.01,1.28-.04Z"/></svg>