<?xml version="1.0" encoding="UTF-8"?>
<svg id="Layer_1" data-name="Layer 1" xmlns="http://www.w3.org/2000/svg" version="1.1" viewBox="0 0 211 167">
  <defs>
    <style>
      .cls-1 {
        fill: #295ca7;
      }

      .cls-1, .cls-2 {
        fill-rule: evenodd;
        stroke-width: 0px;
      }

      .cls-2 {
        fill: #1a3b73;
      }
    </style>
  </defs>
  <path class="cls-1" d="M109.7,26.2c-18.7,0-33.8,15.1-33.8,33.8s2.6,14.8,6.9,20.5l28.1-36.9h-6c-3.2,0-6.2.2-8.4.6-1.3.3-2.5.7-3.4,1.4-1.1.8-2.5,2.5-3.4,4.1-.1.2-.3.5-.5.9l-1.6-.4,2.8-10.6h35.2l-28,37.4c1.8-.2,2.5-.2,4-.2s2.9,0,5.2.2l5,.3c1.8,0,3.3.2,4.5.2,2.6,0,4.2-.2,5.9-.7,1.3-.4,2.5-1,3.6-1.8,2-1.4,3.9-3.5,5-5.7l.5-1,1.5.4c-.5,1.9-.7,2.6-1.5,4.2-1.5,3.4-3.2,5.6-5.5,7.3-2.4,1.8-5,2.6-8.2,2.7h-.5c-2.3,0-4.1-.2-9.7-1-5.7-.9-8.5-1.2-11.4-1.2s-3.7,0-5.5.4c-2.4.4-3.4.7-5.6,1.7,6.2,6.7,15,11,24.9,11,18.7,0,33.8-15.1,33.8-33.8s-15.1-33.8-33.8-33.8h-.1Z"/>
  <path class="cls-2" d="M45.9,117.2h-25.9l-3.2,7c1.1-.6,1.5-.8,2.4-1.1,1.5-.6,3.1-1,4.6-1.3,1.4-.2,2.6-.3,4.6-.4h6.4l-20.1,28.8h28.4l3.3-7.5c-1.1.7-1.6.9-2.4,1.3-1.7.7-3.5,1.3-5.3,1.6-1.5.3-3.1.4-5.2.5h-7.6l19.9-28.8h.1Z"/>
  <path class="cls-2" d="M131.4,150.1c-.5-.4-.7-.7-1-1.2-.2-.3-.4-.7-.5-1-.3-.7-.5-1.9-.5-2.9v-21.7c0-2.2,0-2.8.4-3.7.1-.4.3-.7.5-1,.3-.6.6-.8,1.2-1.4h-10.6c.7.6.9.8,1.2,1.3.2.3.4.7.5,1.1.2.8.3,1.6.3,3.5v21.7c0,1.2-.2,2.4-.5,3.2-.1.3-.3.7-.5,1-.3.4-.4.6-1,1.2h10.5Z"/>
  <path class="cls-2" d="M164.4,117.5c-.8-.3-1.1-.3-2-.5-1.9-.4-3.7-.6-5.8-.6-3.5,0-6.6.6-9.4,1.7-1.7.7-3.2,1.6-4.5,2.7-4.1,3.3-6.3,8-6.3,13.4s2.1,9.9,6,12.9c3.2,2.5,7.3,3.8,12.3,3.8s6-.5,9.2-1.5c.1,0,.3,0,.5-.2v-6c-.8.5-1.1.7-1.5,1-.6.4-1.3.7-2,1-2,.8-3.8,1.2-5.7,1.2-3.4,0-6.3-1.2-8.5-3.5-2.1-2.3-3.3-5.5-3.3-9.1s1.1-6.6,3-8.9c.8-1,1.8-1.8,3-2.4,1.9-1,4-1.6,6.4-1.6s4,.4,5.9,1.2c1.2.5,1.7.7,2.7,1.5v-6.2h0Z"/>
  <path class="cls-2" d="M193.3,135.2v8c0,1.8,0,2.4-.1,3.3,0,.5-.2,1-.4,1.4-.2.6-.6,1.2-1.2,1.7,0,0-.3.2-.5.4h10.5c-.4-.4-.6-.6-.9-1s-.5-.7-.6-1.1c-.3-.8-.4-1.3-.4-3v-21.8c0-1.4.1-2.6.4-3.5.1-.4.3-.8.5-1.2.3-.6.6-.8,1.3-1.4h-10.7c.6.5.8.8,1.2,1.3.2.4.4.8.5,1.1.3.8.4,1.7.4,3.5v8h-14.7v-9.9c0-.5.1-1,.3-1.4.2-.7.8-1.7,1.4-2.3,0,0,.2-.2.4-.4h-10.5c.6.7.8.8,1.1,1.3.2.3.4.7.6,1.1.3.8.3,1.3.4,3.5v20.1c0,1.8,0,2.6-.1,3.5,0,.4-.2.9-.3,1.3-.3.7-.7,1.3-1.3,1.8,0,0-.2.2-.4.3h10.4c-.5-.5-.6-.7-.9-1.1-.2-.3-.4-.7-.5-1-.3-.9-.4-1.5-.5-2.9v-10h14.7v.4h0Z"/>
  <path class="cls-2" d="M50.4,117.2c.7.5.9.8,1.2,1.3.2.4.4.7.5,1.1.1.5.2,1,.2,1.5v13.3c0,3.3,0,4.5.1,5.8.2,2.4.9,4.3,2.3,6s3.3,3.1,5.5,3.9c1.8.6,3.8.9,6,.9s4.9-.4,6.7-1c1.9-.7,3.7-1.9,4.9-3.3,1.5-1.7,2.4-3.8,2.7-6.4.2-1.6.2-3,.2-5.9v-11.6c0-1.7.1-2.7.3-3.3.3-1.2.9-1.8,1.5-2.3.2-.2.3-.2.4-.3h-9.7c.4.6.5.9.7,1.4.1.4.2.8.3,1.2.2,1.2.2,2.7.2,5.5v10.2c0,2.8,0,4.3-.3,5.6-.1.9-.4,1.7-.8,2.4-.8,1.4-2.3,2.4-4.1,2.8-.7.2-1.5.3-2.3.3-1.7,0-3.2-.4-4.5-1.1-.8-.5-1.5-1-2-1.7-.9-1.3-1.2-2.6-1.2-6v-12.4c0-2.8,0-4.3.2-5.5.1-.9.4-1.6.8-2.4,0,0,.1-.2.2-.3h-10v.3h0Z"/>
  <path class="cls-2" d="M96.7,143.4v1.7c0,1.5.1,2.3.4,3,.1.3.3.7.6,1,.3.4.4.6.9,1.1h-10.5c.6-.6.8-.8,1.1-1.1.2-.3.4-.7.6-1,.3-.7.4-1.6.4-3.2v-21.6c0-1.7,0-2.8-.3-3.5-.1-.4-.3-.8-.6-1.2-.3-.5-.5-.7-1.1-1.2h11.5c2.6,0,4.2.2,5.6.6,2.1.5,4,1.5,5.3,3,1.5,1.5,2.2,3.4,2.2,5.4s-.1,1.7-.4,2.5c-.5,1.5-1.3,2.7-2.6,3.8-1.1,1-2.4,1.7-4.1,2.3-.6.2-.8.3-1.5.5l5.1,6c.6.7,1.4,1.6,2.4,2.7,1.5,1.7,2.6,2.7,3.7,3.8.5.5,1,.9,1.4,1.3.4.4.6.5,1.2,1h-5.8c-1.4,0-2.3-.3-3.3-.8-1.1-.6-2.2-1.5-3.4-2.7-.4-.4-.9-1-1.6-1.8-.6-.7-1.1-1.2-1.4-1.6l-6.1-7.3v7.4h.3,0ZM97.3,133.2h1.7c1.8-.3,3-.6,4.1-1.3.6-.4,1.1-.8,1.5-1.2.8-.9,1.3-2.2,1.3-3.7s-.6-3.1-1.7-4c-.6-.5-1.4-.9-2.2-1.2-1.2-.4-2.8-.6-4.4-.6s-.4,0-.9,0v12.2h.6v-.2Z"/>
</svg>